<svg class="icon" style="width: 1.0458984375em;height: 1em;vertical-align: middle;fill: currentColor;overflow: hidden;" viewBox="0 0 1071 1024" version="1.1" xmlns="http://www.w3.org/2000/svg"><path d="M877.340153 172.849105H602.352941c-47.140665 0-83.805627 36.664962-83.805626 83.805626v274.987213c0 47.140665 36.664962 83.805627 83.805626 83.805626h112.613811c7.856777 0 15.713555-7.856777 15.713555-15.713555s-7.856777-15.713555-15.713555-15.713555H602.352941c-28.808184 0-52.378517-23.570332-52.378516-52.378516V256.654731c0-28.808184 23.570332-52.378517 52.378516-52.378516h274.987212c28.808184 0 52.378517 23.570332 52.378517 52.378516v201.657289c-5.237852-2.618926-10.475703-2.618926-15.713555-2.618925h-34.046036c-41.902813 0-73.329923 34.046036-73.329923 73.329923V576.163683c0 23.570332 18.332481 39.283887 39.283887 39.283887h31.42711c47.140665 0 83.805627-36.664962 83.805627-83.805626V256.654731c2.618926-44.521739-36.664962-83.805627-83.805627-83.805626z m52.378517 358.792839c0 28.808184-23.570332 52.378517-52.378517 52.378516h-31.42711c-5.237852 0-7.856777-2.618926-7.856777-7.856777v-47.140665c0-23.570332 18.332481-41.902813 41.902813-41.902813h34.046036c7.856777 0 15.713555 7.856777 15.713555 15.713555v28.808184z" fill="#1296db" /><path d="M610.209719 301.176471h272.368286c7.856777 0 15.713555-7.856777 15.713555-15.713555s-7.856777-15.713555-15.713555-15.713555H610.209719c-7.856777 0-15.713555 7.856777-15.713555 15.713555s7.856777 15.713555 15.713555 15.713555zM610.209719 403.314578h272.368286c7.856777 0 15.713555-7.856777 15.713555-15.713555s-7.856777-15.713555-15.713555-15.713555H610.209719c-7.856777 0-15.713555 7.856777-15.713555 15.713555s7.856777 15.713555 15.713555 15.713555zM772.58312 474.025575h-162.373401c-7.856777 0-15.713555 7.856777-15.713555 15.713555s7.856777 15.713555 15.713555 15.713555h162.373401c7.856777 0 15.713555-7.856777 15.713555-15.713555s-7.856777-15.713555-15.713555-15.713555zM366.649616 361.411765c26.189258-41.902813 26.189258-94.28133 0-136.184144-28.808184-44.521739-81.186701-68.092072-133.565217-57.616368-5.237852 0-10.475703 5.237852-13.094629 10.475704-5.237852 2.618926-5.237852 10.475703 0 15.713555L261.892583 259.273657l-36.664962 23.570333L183.324808 214.751918c-2.618926-5.237852-7.856777-7.856777-15.713555-7.856777-5.237852 0-10.475703 2.618926-15.713555 5.237851-34.046036 44.521739-36.664962 104.757033-7.856777 149.278773 26.189258 41.902813 75.948849 65.473146 123.089514 60.235294l133.565217 219.98977c5.237852 10.475703 15.713555 15.713555 26.189258 18.33248h10.475704c7.856777 0 15.713555-2.618926 23.570332-5.237851l34.046036-20.951407c10.475703-5.237852 15.713555-15.713555 18.332481-26.189258 2.618926-10.475703 0-23.570332-5.237852-31.42711L366.649616 361.411765z m109.994885 240.941176l-34.046036 20.951407h-2.618925s-2.618926 0-2.618926-2.618926L293.319693 392.838875c-2.618926-5.237852-10.475703-7.856777-15.713555-7.856778h-2.618926c-39.283887 7.856777-78.567775-10.475703-96.900255-41.902813-18.332481-26.189258-20.951407-54.997442-10.475704-81.186701l36.664962 57.616368c5.237852 7.856777 15.713555 10.475703 26.189258 5.237852l68.092072-41.902813c7.856777-5.237852 10.475703-18.332481 5.237851-26.189259l-34.046035-54.997442c26.189258 2.618926 52.378517 18.332481 65.473145 41.902813 20.951407 31.42711 18.332481 75.948849-5.237851 104.757034-5.237852 5.237852-5.237852 15.713555 0 20.951406l146.659846 225.227622V602.352941z" fill="#f4ea2a" /><path d="M940.194373 0h-811.867007C57.616368 0 0 57.616368 0 128.327366v576.163683c0 70.710997 57.616368 128.327366 128.327366 128.327365h811.867007c70.710997 0 128.327366-57.616368 128.327366-128.327365v-576.163683c2.618926-70.710997-54.997442-128.327366-128.327366-128.327366z m57.616369 704.491049c0 31.42711-26.189258 54.997442-54.997443 54.997442H130.946292c-31.42711 0-54.997442-26.189258-54.997443-54.997442v-576.163683c0-31.42711 26.189258-54.997442 54.997443-54.997443h811.867007c31.42711 0 54.997442 26.189258 54.997443 54.997443v576.163683zM906.148338 948.051151h-201.657289v-20.951407c0-18.332481-13.094629-31.42711-31.42711-31.42711H377.12532c-18.332481 0-31.42711 13.094629-31.42711 31.42711v20.951407H144.040921c-20.951407 0-36.664962 15.713555-36.664962 36.664962S123.089514 1021.381074 144.040921 1021.381074h762.107417c20.951407 0 36.664962-15.713555 36.664961-36.664961s-15.713555-36.664962-36.664961-36.664962z" fill="#1296db" /></svg>