<?xml version="1.0" standalone="no"?><!DOCTYPE svg PUBLIC "-//W3C//DTD SVG 1.1//EN" "http://www.w3.org/Graphics/SVG/1.1/DTD/svg11.dtd"><svg t="1704247453180" class="icon" viewBox="0 0 1024 1024" version="1.1" xmlns="http://www.w3.org/2000/svg" p-id="8576" xmlns:xlink="http://www.w3.org/1999/xlink" width="200" height="200"><path d="M784 80H240c-88 0-160 72-160 160v544c0 88 72 160 160 160h544c88 0 160-72 160-160V240c0-88-72-160-160-160z m96 704c0 52.8-43.2 96-96 96h-96v-96c0-52.8 43.2-96 96-96h96v96z m0-160h-96c-88 0-160 72-160 160v96H240c-52.8 0-96-43.2-96-96V240c0-52.8 43.2-96 96-96h544c52.8 0 96 43.2 96 96v384z" fill="#ffffff" p-id="8577"></path><path d="M560 336c-17.6 0-32 14.4-32 32v115.2L302.4 257.6c-12.8-12.8-32-12.8-44.8 0-12.8 12.8-12.8 32 0 44.8L483.2 528H368c-17.6 0-32 14.4-32 32s14.4 32 32 32h192c9.6 0 17.6-3.2 22.4-9.6 6.4-6.4 9.6-14.4 9.6-22.4V368c0-17.6-14.4-32-32-32z" fill="#ffffff" p-id="8578"></path></svg>