<?xml version="1.0" standalone="no"?><!DOCTYPE svg PUBLIC "-//W3C//DTD SVG 1.1//EN" "http://www.w3.org/Graphics/SVG/1.1/DTD/svg11.dtd"><svg t="1704247408740" class="icon" viewBox="0 0 1024 1024" version="1.1" xmlns="http://www.w3.org/2000/svg" p-id="7492" xmlns:xlink="http://www.w3.org/1999/xlink" width="200" height="200"><path d="M927.999436 531.028522a31.998984 31.998984 0 0 0-31.998984 31.998984c0 51.852948-10.147341 102.138098-30.163865 149.461048a385.47252 385.47252 0 0 1-204.377345 204.377345c-47.32295 20.016524-97.6081 30.163865-149.461048 30.163865s-102.138098-10.147341-149.461048-30.163865a385.47252 385.47252 0 0 1-204.377345-204.377345c-20.016524-47.32295-30.163865-97.6081-30.163865-149.461048s10.147341-102.138098 30.163865-149.461048a385.47252 385.47252 0 0 1 204.377345-204.377345c47.32295-20.016524 97.6081-30.163865 149.461048-30.163865a387.379888 387.379888 0 0 1 59.193424 4.533611l-56.538282 22.035878A31.998984 31.998984 0 1 0 537.892156 265.232491l137.041483-53.402685a31.998984 31.998984 0 0 0 18.195855-41.434674L639.723197 33.357261a31.998984 31.998984 0 1 0-59.630529 23.23882l26.695923 68.502679a449.969005 449.969005 0 0 0-94.786785-10.060642c-60.465003 0-119.138236 11.8488-174.390489 35.217667a449.214005 449.214005 0 0 0-238.388457 238.388457c-23.361643 55.252253-35.22128 113.925486-35.22128 174.390489s11.8488 119.138236 35.217668 174.390489a449.214005 449.214005 0 0 0 238.388457 238.388457c55.252253 23.368867 113.925486 35.217667 174.390489 35.217667s119.138236-11.8488 174.390489-35.217667A449.210393 449.210393 0 0 0 924.784365 737.42522c23.368867-55.270316 35.217667-113.925486 35.217667-174.390489a31.998984 31.998984 0 0 0-32.002596-32.006209z" fill="#ffffff" p-id="7493"></path></svg>