<svg class="icon" style="width: 1em;height: 1em;vertical-align: middle;fill: currentColor;overflow: hidden;" viewBox="0 0 1024 1024" version="1.1" xmlns="http://www.w3.org/2000/svg"><path d="M448 384H64c-35.3 0-64-28.7-64-64V64C0 28.7 28.7 0 64 0h384c35.3 0 64 28.7 64 64v256c0 35.3-28.7 64-64 64z"  /><path d="M409.6 320H102.4C81.2 320 64 302.8 64 281.6V102.4C64 81.2 81.2 64 102.4 64h307.2c21.2 0 38.4 17.2 38.4 38.4v179.2c0 21.2-17.2 38.4-38.4 38.4z" fill="#FFFFFF" /><path d="M416 480H96c-17.7 0-32-14.3-32-32s14.3-32 32-32h320c17.7 0 32 14.3 32 32s-14.3 32-32 32zM960 928H576c-35.3 0-64-28.7-64-64V608c0-35.3 28.7-64 64-64h384c35.3 0 64 28.7 64 64v256c0 35.3-28.7 64-64 64z"  /><path d="M921.6 864H614.4c-21.2 0-38.4-17.2-38.4-38.4V646.4c0-21.2 17.2-38.4 38.4-38.4h307.2c21.2 0 38.4 17.2 38.4 38.4v179.2c0 21.2-17.2 38.4-38.4 38.4z" fill="#FFFFFF" /><path d="M928 1024H608c-17.7 0-32-14.3-32-32s14.3-32 32-32h320c17.7 0 32 14.3 32 32s-14.3 32-32 32zM640 192h160c17.7 0 32 14.3 32 32v160h64V182.9c0-30.3-24.6-54.9-54.9-54.9H640v64zM384 832H224c-17.7 0-32-14.3-32-32V640h-64v201.1c0 30.3 24.6 54.9 54.9 54.9H384v-64z"  /><path d="M640 160m-32 0a32 32 0 1 0 64 0 32 32 0 1 0-64 0Z"  /><path d="M864 384m-32 0a32 32 0 1 0 64 0 32 32 0 1 0-64 0Z"  /><path d="M160 640m-32 0a32 32 0 1 0 64 0 32 32 0 1 0-64 0Z"  /><path d="M384 864m-32 0a32 32 0 1 0 64 0 32 32 0 1 0-64 0Z"  /></svg>